<?xml version="1.0" ?>
<svg height="60px" version="1.1" viewBox="0 0 60 60" width="60px" xmlns="http://www.w3.org/2000/svg" xmlns:sketch="http://www.bohemiancoding.com/sketch/ns" xmlns:xlink="http://www.w3.org/1999/xlink">
  <title/>
  <desc/>
  <defs/>
  <g fill="none" fill-rule="evenodd" id="black" stroke="none" stroke-width="1">
    <g id="slice" transform="translate(-100.000000, -200.000000)"/>
    <g fill="#FFFFFF" id="Spotify" transform="translate(12.000000, 18.000000)">
      <path d="M26.676152,23.5377386 C26.4592954,23.531377 26.2431339,23.4670537 26.0471289,23.343355 C26.0450438,23.343355 25.7941296,23.1814865 25.2790952,22.9008672 C24.7633657,22.6195411 24.0036726,22.2321875 23.0570101,21.825749 C21.1657704,21.0072173 18.5183129,20.1010361 15.5594715,19.7532662 C14.651037,19.6472387 13.7766601,19.5822086 12.9405111,19.5546414 C9.18027344,19.4288222 6.22490733,19.9978361 5.02038017,20.2791622 C4.61724933,20.3731732 4.43167013,20.430428 4.43097508,20.430428 C3.76024876,20.6304664 3.05824505,20.238165 2.86084995,19.556762 C2.66554,18.8739453 3.04920936,18.1586136 3.71924062,17.959282 C3.80473216,17.9345423 7.61709884,16.8042899 13.0204422,16.9817091 C13.9212312,17.0128105 14.8685887,17.0813749 15.8472235,17.1965914 C22.4120008,17.9776601 27.2982246,21.1125378 27.3885815,21.1598968 C27.982157,21.5380613 28.1614807,22.3325602 27.7903223,22.9340891 C27.5442735,23.3384071 27.1126454,23.5525825 26.676152,23.5377386 Z M31.2787942,15.9468814 C30.9688005,16.4494514 30.4308293,16.7194679 29.8852126,16.700383 C29.6141418,16.6911939 29.3437661,16.6106131 29.0991074,16.4551062 C29.0977173,16.4572267 29.0421131,16.41835 28.8926766,16.3299938 C28.7418501,16.2409308 28.5152627,16.1101636 28.2205602,15.9497088 C27.6269848,15.6259717 26.7567782,15.1806564 25.6662398,14.7106015 C23.4907233,13.7697847 20.4456954,12.7307159 17.0441051,12.3320528 C16.0029154,12.2090609 14.9957834,12.1362554 14.0331347,12.1044472 C9.7064287,11.9588362 6.3055335,12.612672 4.92307273,12.9364091 C4.46155742,13.045264 4.25234641,13.1074667 4.2509563,13.1095873 C3.41341722,13.3569846 2.5334799,12.8678447 2.28882118,12.0146773 C2.04277236,11.1608031 2.5230541,10.2666384 3.36267834,10.0206548 C3.46902148,9.98743282 7.88121905,8.68046801 14.1353075,8.88828178 C15.1778873,8.92291741 16.271901,9.00067086 17.4055328,9.13497227 C25.0121947,10.0411534 30.6671474,13.665171 30.779746,13.7294943 C31.5185875,14.2030835 31.7437848,15.1947934 31.2787942,15.9468814 Z M35.0181803,8.86354204 C34.6449367,9.46719156 33.9971472,9.78951495 33.3444922,9.76760261 C33.0212925,9.75699987 32.6953126,9.66157518 32.4026952,9.4735532 C32.4026952,9.4735532 32.33458,9.42972853 32.1580365,9.32440795 C31.9828831,9.22120791 31.7166777,9.06640786 31.3663709,8.87555849 C30.6685375,8.49739398 29.6419439,7.97361846 28.3574857,7.41803472 C25.7927394,6.31040148 22.20557,5.08401752 18.1999785,4.61396257 C16.9711245,4.46976526 15.7832786,4.38494332 14.650342,4.34818714 C8.70277191,4.14602817 4.2405305,5.22680113 3.30429387,5.47914641 C3.17084366,5.51448889 3.12358005,5.52862588 3.12358005,5.52862588 C2.1178381,5.82762324 1.06413748,5.23952442 0.769434933,4.21741997 C0.474732386,3.19390183 1.05023642,2.12019737 2.05806353,1.82120001 C2.18595331,1.78585753 7.39329172,0.242098123 14.7740614,0.488081765 C16.0050006,0.528372189 17.2950193,0.618848931 18.6329967,0.77718323 C27.6144738,1.84806029 34.282119,6.1237932 34.4176543,6.2008398 C35.3052372,6.76631944 35.5742228,7.96018832 35.0181803,8.86354204 Z"/>
    </g>
  </g>
</svg>